<svg width="282" height="84" viewBox="0 0 141 42" fill="none" xmlns="http://www.w3.org/2000/svg">
<path d="M54.8221 4.27966H57.7473L55.9566 17.7366H53.1762L48.1856 9.36979L47.0722 17.7366H44.147L45.9377 4.27966H48.7181L53.7063 12.6645L54.8221 4.27966Z" fill="black"/>
<path d="M67.8958 16.3541C66.6922 17.4134 65.2814 17.9431 63.6633 17.9431C62.0452 17.9431 60.7753 17.4134 59.8537 16.3541C58.9328 15.2888 58.5723 14.0051 58.7722 12.5029C58.9721 11.0007 59.6735 9.7229 60.8763 8.66956C62.0722 7.62221 63.4823 7.09853 65.1064 7.09853C66.7305 7.09853 68.0012 7.62221 68.9184 8.66956C69.8408 9.7229 70.2021 11.0007 70.0022 12.5029C69.8023 14.0051 69.1002 15.2888 67.8958 16.3541ZM64.7628 9.61217L64.7616 9.62115C63.9224 9.62115 63.213 9.89346 62.6334 10.4381C62.0537 10.9827 61.7078 11.677 61.5955 12.5208C61.4848 13.3527 61.6459 14.047 62.079 14.6035C62.5121 15.1601 63.1483 15.4384 63.9875 15.4384C64.8388 15.4384 65.5547 15.1631 66.1351 14.6125C66.7156 14.0619 67.0619 13.3647 67.1742 12.5208C67.2865 11.677 67.1257 10.9797 66.6918 10.4291C66.2571 9.88449 65.6141 9.61217 64.7628 9.61217Z" fill="black"/>
<path d="M79.2151 7.10751L79.1915 7.08058C80.3568 7.08058 81.2449 7.48456 81.8559 8.29251C82.466 9.10645 82.6803 10.1957 82.4987 11.5602L81.6792 17.7187H78.8627L79.626 11.9822C79.7264 11.2281 79.6014 10.6476 79.251 10.2406C78.8954 9.82763 78.3795 9.62115 77.7033 9.62115C76.9727 9.62115 76.3421 9.84558 75.8115 10.2944C75.2808 10.7433 74.9689 11.3179 74.8757 12.0181L74.1147 17.7366H71.2891L72.6761 7.31399H75.5017L75.2938 8.87604C76.6099 7.69702 77.917 7.10751 79.2151 7.10751Z" fill="black"/>
<path d="M90.7876 17.7366L90.9272 16.5516C90.1404 17.4733 89.0017 17.9311 87.5112 17.9251C86.3037 17.9251 85.3782 17.6439 84.7345 17.0813C84.0857 16.5127 83.8302 15.7107 83.9679 14.6754C84.1081 13.622 84.6463 12.7991 85.5825 12.2066C86.5187 11.6141 87.5634 11.3179 88.7165 11.3179C89.6644 11.3179 90.5884 11.4525 91.4884 11.7218C91.7253 10.2137 91.0408 9.45956 89.4348 9.45956C88.7948 9.45956 88.1289 9.54036 87.4373 9.70195C86.7456 9.86354 86.1976 10.0341 85.7933 10.2137L85.3762 8.17581C86.9744 7.46361 88.5674 7.10751 90.1553 7.10751C91.7854 7.10751 92.9374 7.50251 93.6111 8.29251C94.2848 9.08251 94.5146 10.2825 94.3004 11.8924L93.5226 17.7366H90.7876ZM88.5837 15.9232L88.5734 15.9322C89.2376 15.9322 89.8202 15.7736 90.3212 15.4564C90.8155 15.1452 91.1024 14.6903 91.1821 14.0918L91.274 13.4006C90.641 13.1672 89.9501 13.0505 89.2014 13.0505C88.5735 13.0505 88.0315 13.1762 87.5754 13.4275C87.1194 13.6789 86.8614 14.029 86.8017 14.4779C86.7428 14.9207 86.8829 15.2739 87.2222 15.5372C87.5563 15.7945 88.0101 15.9232 88.5837 15.9232Z" fill="black"/>
<path d="M110.602 7.12546H110.611C111.746 7.12546 112.606 7.51747 113.19 8.30149C113.775 9.07952 113.978 10.1359 113.801 11.4705L112.967 17.7366H110.15L110.935 11.8385C111.025 11.1623 110.906 10.6266 110.578 10.2316C110.251 9.83661 109.773 9.63911 109.145 9.63911C108.541 9.63911 107.995 9.86354 107.507 10.3124C107.025 10.7553 106.737 11.3298 106.643 12.036L105.885 17.7366H103.068L103.848 11.8745C103.941 11.1802 103.823 10.6356 103.495 10.2406C103.167 9.84558 102.701 9.64808 102.098 9.64808C101.47 9.64808 100.911 9.89945 100.422 10.4022C99.9328 10.8989 99.6474 11.4555 99.5654 12.072L98.8116 17.7366H95.986L97.373 7.31399H100.199L100.003 8.78626C101.164 7.68505 102.349 7.12846 103.558 7.11649C104.27 7.11649 104.881 7.28706 105.391 7.62819C105.901 7.96933 106.279 8.44513 106.524 9.05558C107.836 7.76884 109.196 7.12546 110.602 7.12546Z" fill="black"/>
<path d="M120.674 17.9431L120.635 17.9611C118.799 17.9611 117.427 17.4733 116.519 16.4978C115.605 15.5162 115.258 14.1966 115.479 12.5388C115.594 11.671 115.86 10.878 116.275 10.1598C116.69 9.44759 117.189 8.87604 117.771 8.44513C118.361 8.00823 118.981 7.67906 119.633 7.45762C120.297 7.2302 120.955 7.11649 121.607 7.11649C123.207 7.11649 124.436 7.61024 125.295 8.59774C126.153 9.59123 126.463 10.9797 126.226 12.7632C126.181 13.1043 126.122 13.4096 126.05 13.6789H118.198C118.276 14.2295 118.558 14.6963 119.044 15.0793C119.524 15.4624 120.214 15.6539 121.114 15.6539C121.585 15.6539 122.052 15.5731 122.514 15.4115C122.976 15.2499 123.313 15.0973 123.526 14.9537L123.857 14.7113L125.171 16.1297C125.13 16.1716 125.067 16.2344 124.983 16.3182C124.921 16.3781 124.732 16.5247 124.418 16.7581C124.129 16.9736 123.823 17.1621 123.5 17.3237C123.177 17.4853 122.759 17.6289 122.247 17.7546C121.735 17.8803 121.211 17.9431 120.674 17.9431ZM122.987 10.2226C122.613 9.76778 122.042 9.54036 121.275 9.54036C120.509 9.54036 119.869 9.76778 119.355 10.2226C118.848 10.6775 118.538 11.2161 118.425 11.8385H123.433C123.504 11.2161 123.355 10.6775 122.987 10.2226Z" fill="black"/>
<path d="M71.1187 22.4246L69.4384 35.8958H66.4951L67.5768 27.2236L62.9557 33.6311H61.9867L58.9482 27.2056L57.8643 35.8958H54.9391L56.6194 22.4246H59.8072L63.0294 29.1198L67.9309 22.4246H71.1187Z" fill="black"/>
<path d="M96.024 25.2554L96.0002 25.2285C97.1655 25.2285 98.0569 25.6329 98.6745 26.4417C99.2913 27.2565 99.5145 28.3469 99.3442 29.7129L98.5752 35.8778H95.7586L96.4749 30.1353C96.5691 29.3804 96.4393 28.7992 96.0856 28.3918C95.7266 27.9784 95.209 27.7717 94.5328 27.7717C93.8022 27.7717 93.1735 27.9964 92.6465 28.4458C92.1195 28.8951 91.8123 29.4703 91.7249 30.1712L91.0108 35.8958H88.1852L89.4867 25.4621H92.3123L92.1172 27.0258C93.4237 25.8456 94.7259 25.2554 96.024 25.2554Z" fill="black"/>
<path d="M105.095 36.1744L105.151 36.1654C103.279 36.1654 101.755 35.6981 100.58 34.7635L101.822 32.9392C102.243 33.2387 102.788 33.4933 103.456 33.703C104.101 33.9067 104.713 34.0086 105.293 34.0086C106.392 34.0086 106.979 33.703 107.055 33.0919C107.093 32.7924 106.969 32.5467 106.685 32.355C106.395 32.1633 106.031 32.0315 105.594 31.9596C105.191 31.8937 104.712 31.7888 104.157 31.6451C103.643 31.5073 103.165 31.3455 102.723 31.1598C102.281 30.974 101.94 30.6595 101.699 30.2162C101.453 29.7728 101.37 29.2276 101.451 28.5806C101.582 27.5261 102.082 26.7113 102.951 26.1362C103.82 25.561 104.861 25.2734 106.074 25.2734C107.668 25.2734 108.975 25.6419 109.994 26.3788L108.872 28.257C107.94 27.6939 106.934 27.4123 105.853 27.4123C104.827 27.4123 104.274 27.7238 104.197 28.3469C104.155 28.6824 104.332 28.934 104.727 29.1018C105.123 29.2695 105.613 29.4044 106.199 29.5062C106.784 29.6081 107.364 29.7429 107.941 29.9106C108.518 30.0784 108.984 30.4109 109.338 30.9081C109.693 31.4054 109.82 32.0525 109.721 32.8493C109.59 33.8977 109.108 34.7155 108.274 35.3027C107.447 35.8838 106.387 36.1744 105.095 36.1744Z" fill="black"/>
<path d="M115.719 27.9605L115.158 32.4629C115.052 33.3076 115.428 33.73 116.286 33.73C116.431 33.73 116.596 33.715 116.78 33.6851C116.946 33.6611 117.077 33.6341 117.171 33.6042L117.304 33.5503L117.487 35.6442C116.912 35.9437 116.102 36.0965 115.057 36.1025C114.049 36.1025 113.299 35.8659 112.809 35.3925C112.313 34.9132 112.121 34.2273 112.233 33.3346L112.903 27.9605H111.771L111.901 26.918L116.178 23.1256H116.322L116.031 25.4621H118.295L117.984 27.9605H115.719Z" fill="black"/>
<path d="M124.439 36.1025L124.401 36.1205C122.566 36.1205 121.19 35.6322 120.273 34.6556C119.351 33.6731 118.993 32.352 119.2 30.6925C119.309 29.8237 119.568 29.0299 119.978 28.311C120.386 27.598 120.88 27.0258 121.46 26.5945C122.045 26.1571 122.663 25.8276 123.313 25.6059C123.975 25.3783 124.632 25.2644 125.284 25.2644C126.884 25.2644 128.118 25.7587 128.984 26.7473C129.851 27.7418 130.172 29.1318 129.95 30.9171C129.907 31.2586 129.851 31.5642 129.781 31.8338H121.929C122.011 32.385 122.297 32.8523 122.787 33.2357C123.27 33.6192 123.962 33.8109 124.861 33.8109C125.332 33.8109 125.798 33.73 126.259 33.5682C126.72 33.4065 127.056 33.2537 127.267 33.1099L127.596 32.8673L128.922 34.2872C128.881 34.3291 128.819 34.392 128.736 34.4759C128.674 34.5358 128.487 34.6826 128.174 34.9162C127.887 35.1319 127.583 35.3207 127.261 35.4824C126.939 35.6442 126.522 35.788 126.012 35.9138C125.501 36.0396 124.977 36.1025 124.439 36.1025ZM126.69 28.3739C126.312 27.9185 125.739 27.6909 124.973 27.6909C124.206 27.6909 123.568 27.9185 123.058 28.3739C122.554 28.8292 122.249 29.3684 122.141 29.9915H127.149C127.215 29.3684 127.061 28.8292 126.69 28.3739Z" fill="black"/>
<path d="M135.214 27.5561L135.215 27.5471C136.305 26.0732 137.689 25.3363 139.367 25.3363L138.997 28.302H138.662C137.642 28.302 136.762 28.5806 136.022 29.1377C135.282 29.6949 134.833 30.6116 134.674 31.8877L134.174 35.8958H131.348L132.65 25.4621H135.475L135.214 27.5561Z" fill="black"/>
<path d="M73.0218 30.3989C74.3073 27.1247 77.159 24.7556 80.1758 24.7556C83.1926 24.7556 85.4534 27.1247 85.9221 30.3989C84.6366 33.673 81.7848 36.0421 78.768 36.0421C75.7512 36.0421 73.4905 33.673 73.0218 30.3989Z" fill="black"/>
<path d="M78.997 34.2059C78.1084 33.4015 77.6285 31.997 77.8278 30.3989C78.0272 28.8008 78.8575 27.3962 79.9468 26.5918C80.8354 27.3962 81.3154 28.8008 81.116 30.3989C80.9167 31.997 80.0864 33.4015 78.997 34.2059Z" fill="white"/>
<circle cx="20.147" cy="20.8997" r="20" fill="black"/>
<path d="M20.1471 5.40979L34.5886 31.1301H5.70557L20.1471 5.40979Z" fill="#48BDCD"/>
<path d="M5.70548 20.3455C8.75682 16.5977 14.0847 14.0879 20.1469 14.0381C26.2092 13.9884 31.537 16.4108 34.5884 20.1086C31.537 23.8564 26.2092 26.3662 20.1469 26.4159C14.0847 26.4657 8.75681 24.0433 5.70548 20.3455Z" fill="#D4F706"/>
<path d="M20.1953 26.1147C18.6673 24.8707 17.6441 22.6985 17.6238 20.2269C17.6035 17.7553 18.5911 15.5832 20.0987 14.3392C21.6267 15.5832 22.6499 17.7553 22.6702 20.2269C22.6905 22.6985 21.7029 24.8707 20.1953 26.1147Z" fill="black"/>
</svg>
