<svg width="65" height="64" viewBox="0 0 65 64" fill="none" xmlns="http://www.w3.org/2000/svg">
<rect x="0.61792" width="64" height="64" rx="32" fill="black"/>
<path d="M32.6179 9L55.7243 50.1525H9.51147L32.6179 9Z" fill="#48BDCD"/>
<path d="M9.51173 32.8975C14.3939 26.901 22.9184 22.8853 32.618 22.8058C42.3177 22.7262 50.8422 26.602 55.7244 32.5185C50.8422 38.515 42.3177 42.5306 32.6181 42.6102C22.9184 42.6898 14.3939 38.814 9.51173 32.8975Z" fill="#D4F706"/>
<path d="M32.6953 42.1279C30.2506 40.1375 28.6134 36.662 28.5809 32.7075C28.5485 28.753 30.1287 25.2775 32.5408 23.2871C34.9856 25.2776 36.6227 28.753 36.6552 32.7075C36.6876 36.662 35.1075 40.1375 32.6953 42.1279Z" fill="black"/>
</svg>
